<?xml version="1.0" encoding="utf-8"?>
<!-- Generator: Adobe Illustrator 16.0.0, SVG Export Plug-In . SVG Version: 6.00 Build 0)  -->
<!DOCTYPE svg PUBLIC "-//W3C//DTD SVG 1.1//EN" "http://www.w3.org/Graphics/SVG/1.1/DTD/svg11.dtd">
<svg version="1.1" id="Layer_1" xmlns="http://www.w3.org/2000/svg" xmlns:xlink="http://www.w3.org/1999/xlink" x="0px" y="0px"
	 width="864px" height="864px" viewBox="0 0 864 864" enable-background="new 0 0 864 864" xml:space="preserve">
<g>
	<path fill-rule="evenodd" clip-rule="evenodd" d="M505.66,153.746c49.992,13.242,94.641,39.598,130.059,75.152l27.34-26.961
		c15.672,15.766,29.754,33.133,41.965,51.82l16.121-10.43C662.66,153.832,563.812,93.121,450.43,87.066l-0.977,19.164
		c22.652,1.215,44.699,4.754,65.887,10.355L505.66,153.746L505.66,153.746z M412.98,777.055l0.977-19.164
		c-22.648-1.219-44.676-4.75-65.867-10.355l9.688-37.156c-49.996-13.246-94.648-39.598-130.062-75.156l-27.328,26.961
		c-15.688-15.773-29.766-33.137-41.984-51.832l-16.109,10.43C200.77,710.277,299.609,770.996,412.98,777.055L412.98,777.055z
		 M449.465,757.891l0.98,19.164c113.367-6.051,212.215-66.77,270.699-156.262l-16.109-10.434
		c-12.223,18.688-26.293,36.051-41.977,51.816l-27.324-26.965c-35.418,35.562-80.07,61.914-130.062,75.168l9.684,37.156
		C494.152,753.141,472.121,756.672,449.465,757.891L449.465,757.891z M412.98,87.066c-113.371,6.062-212.219,66.777-270.688,156.273
		l16.109,10.43c12.211-18.691,26.289-36.055,41.969-51.816l27.34,26.957c35.41-35.559,80.066-61.914,130.051-75.164l-9.688-37.156
		c21.195-5.602,43.227-9.141,65.883-10.359L412.98,87.066L412.98,87.066z M123.523,588.363l17.102-8.742
		c-9.992-19.684-18.051-40.52-23.926-62.25l37.012-10.191c-6.453-23.949-9.91-49.125-9.91-75.117c0-25.988,3.457-51.164,9.91-75.109
		l-37.016-10.188c5.871-21.738,13.934-42.574,23.93-62.262l-17.105-8.742c-23.852,46.934-37.305,100.047-37.305,156.301
		C86.215,488.312,99.672,541.426,123.523,588.363L123.523,588.363z M722.809,284.492c10,19.688,18.055,40.523,23.926,62.254
		l-37.004,10.191c6.453,23.953,9.906,49.133,9.906,75.125c0,25.984-3.453,51.16-9.906,75.105l37.004,10.188
		c-5.871,21.746-13.926,42.582-23.926,62.266l17.102,8.75c23.859-46.938,37.309-100.051,37.309-156.309
		c0-56.262-13.449-109.375-37.309-156.316L722.809,284.492L722.809,284.492z M431.719,48.168
		c212.016,0,383.895,171.875,383.895,383.895c0,212.016-171.879,383.895-383.895,383.895c-212.02,0-383.891-171.879-383.891-383.895
		C47.828,220.043,219.699,48.168,431.719,48.168L431.719,48.168z M541.594,392.473c4.457,12.363,6.891,25.691,6.891,39.59
		c0,13.891-2.434,27.223-6.891,39.582l106.875,38.5c-9.363,26.008-23.289,49.832-40.785,70.535l-86.762-73.281
		c-17.207,20.34-41.223,34.73-68.547,39.609l20.09,111.797c-13.227,2.359-26.836,3.598-40.746,3.598
		c-13.898,0-27.516-1.238-40.734-3.598l20.082-111.797c-27.316-4.879-51.348-19.254-68.539-39.598l-86.762,73.285
		c-17.504-20.707-31.414-44.539-40.793-70.539l106.871-38.508c-4.457-12.363-6.891-25.688-6.891-39.586s2.434-27.227,6.891-39.586
		l-106.871-38.5c9.363-26.004,23.289-49.836,40.789-70.539l86.758,73.277c17.199-20.34,41.223-34.723,68.547-39.598l-20.094-111.801
		c13.223-2.359,26.84-3.59,40.746-3.59c13.898,0,27.52,1.23,40.746,3.59l-20.09,111.801c27.324,4.875,51.34,19.258,68.547,39.598
		l86.746-73.281c17.512,20.703,31.426,44.527,40.801,70.531L541.594,392.473L541.594,392.473z"/>
</g>
</svg>
