<?xml version="1.0" encoding="utf-8"?>
<!-- Generator: Adobe Illustrator 16.0.0, SVG Export Plug-In . SVG Version: 6.00 Build 0)  -->
<!DOCTYPE svg PUBLIC "-//W3C//DTD SVG 1.1//EN" "http://www.w3.org/Graphics/SVG/1.1/DTD/svg11.dtd">
<svg version="1.1" id="Layer_1" xmlns="http://www.w3.org/2000/svg" xmlns:xlink="http://www.w3.org/1999/xlink" x="0px" y="0px"
	 width="864px" height="864px" viewBox="0 0 864 864" enable-background="new 0 0 864 864" xml:space="preserve">
<g>
	<path d="M645.042,578.536c121.234-154.421,21.694-294.794,21.694-294.794c57.43,108.473-52.322,215.674-52.322,215.674
		c132.72-216.952-76.567-343.291-76.567-343.291c122.515,91.888-12.763,241.193-12.763,241.193
		c108.474,200.354-86.771,290.963-86.771,290.963s-0.548-21.404-2.771-108.373c5.398,5.67,43.609,45.847,43.609,45.847
		l-30.627-59.981l79.112-11.49l-79.112-11.477l25.519-70.199c0,0-33.487,48.882-39.761,58.041
		c-2.848-111.093-9.896-386.737-9.928-388.041c-0.013-3.055-0.075-3.055-0.095,0c-0.058,2.173-7.087,277.199-9.921,388.041
		c-6.281-9.159-39.767-58.041-39.767-58.041l25.518,70.199l-79.119,11.477l79.119,11.49l-30.627,59.981
		c0,0,38.211-40.177,43.616-45.847c-2.23,86.969-2.771,108.373-2.771,108.373s-195.252-90.609-86.779-290.963
		c0,0-135.271-149.305-12.763-241.193c0,0-209.286,126.339-76.574,343.291c0,0-109.745-107.201-52.316-215.674
		c0,0-99.541,140.373,21.688,294.794c0,0-33.171-20.423-62.526-98.27c0,0,21.412,231.751,280.683,234.787c0,0.024,0,0.024,0,0.024
		c0.869,0,1.726,0,2.582,0c0.863,0,1.727,0,2.589,0c0,0,0,0-0.006-0.024c259.277-3.036,280.688-234.787,280.688-234.787
		C678.227,558.113,645.042,578.536,645.042,578.536z"/>
	<path d="M424.31,61.618c-201.646,0-365.698,164.045-365.698,365.697C58.611,628.955,222.664,793,424.31,793
		C625.948,793,790,628.955,790,427.315C790,225.663,625.948,61.618,424.31,61.618z M424.31,756.439
		c-181.482,0-329.124-147.655-329.124-329.124c0-181.482,147.642-329.137,329.124-329.137
		c181.475,0,329.116,147.655,329.116,329.137C753.426,608.784,605.784,756.439,424.31,756.439z"/>
</g>
</svg>
