<?xml version="1.0" encoding="utf-8"?>
<!-- Generator: Adobe Illustrator 16.0.0, SVG Export Plug-In . SVG Version: 6.00 Build 0)  -->
<!DOCTYPE svg PUBLIC "-//W3C//DTD SVG 1.1//EN" "http://www.w3.org/Graphics/SVG/1.1/DTD/svg11.dtd">
<svg version="1.1" id="Layer_1" xmlns="http://www.w3.org/2000/svg" xmlns:xlink="http://www.w3.org/1999/xlink" x="0px" y="0px"
	 width="864px" height="864px" viewBox="0 0 864 864" enable-background="new 0 0 864 864" xml:space="preserve">
<path d="M509.508,78.926C627.652,146.113,661.016,240.992,671.41,306.41c13.359,84.105-22.289,174.195-90.398,185.574
	c-69.637,11.641-105.613-58.008-110.559-96.156c-5.512-42.59,12.492-87.344,36.895-118.492
	c13.121-16.738,32.047-39.285,59.082-59.289l-40.836-44.672c-19.059,12.387-33.965,33.609-41.32,49.43
	c1.48-22.918,9.379-50.273,21.602-71.004L431.59,70.508l-74.281,81.293c12.227,20.73,20.121,48.086,21.605,71.004
	c-7.355-15.82-22.258-37.043-41.324-49.43l-40.836,44.672c27.035,20.004,45.961,42.551,59.086,59.289
	c24.395,31.148,42.406,75.902,36.895,118.492c-4.953,38.148-40.926,107.797-110.559,96.156
	c-68.117-11.379-103.766-101.469-90.398-185.574c10.387-65.418,43.758-160.297,161.902-227.484
	C191.988,114.652,70.996,259.156,70.996,432.027c0,199.699,161.449,361.59,360.594,361.59c199.152,0,360.598-161.891,360.598-361.59
	C792.188,259.156,671.199,114.652,509.508,78.926z"/>
</svg>
